STARTFONT 2.1
COMMENT Copyright (C) 1990-1991 EWT Consulting
COMMENT Portions Copyright (C) 1994-1995 Cronyx Ltd.
COMMENT Changes Copyright (C) 1996 by Andrey A. Chernov, Moscow, Russia.
COMMENT Modified by Serge Vakulenko, <vak@cronyx.ru>
COMMENT This software may be used, modified, copied, distributed, and sold,
COMMENT in both source and binary form provided that the copyright
COMMENT and these terms are retained. Under no circumstances is the author
COMMENT responsible for the proper functioning of this software, nor does
COMMENT the author assume any responsibility for damages incurred with its use.
COMMENT $XFree86: xc/fonts/bdf/cyrillic/crox3hbo.bdf,v 3.2 1996/09/01 12:18:17 dawes Exp $
FONT -Cronyx-Helvetica-Bold-O-Normal--17-120-100-100-P-67-KOI8-R
SIZE 12 96 96
FONTBOUNDINGBOX 23 20 -1 -4
STARTPROPERTIES 19
DEFAULT_CHAR 32
FONT_ASCENT 16
FONT_DESCENT 4
SPACING "P"
FONTNAME_REGISTRY ""
FOUNDRY "Cronyx"
FAMILY_NAME "Helvetica"
WEIGHT_NAME "Bold"
SLANT "O"
SETWIDTH_NAME "Normal"
ADD_STYLE_NAME ""
AVERAGE_WIDTH 67
CHARSET_REGISTRY "KOI8"
CHARSET_ENCODING "R"
PIXEL_SIZE 17
POINT_SIZE 120
RESOLUTION_X 100
RESOLUTION_Y 100
COPYRIGHT "Copyright (C) 1990, 1991 EWT Consulting, Portions Copyright (C) 1994 Cronyx Ltd., Portions Copyright (C) 1996 by Andrey A. Chernov, Moscow, Russia."
ENDPROPERTIES
CHARS 224
STARTCHAR space
ENCODING 32
SWIDTH 250 0
DWIDTH 5 0
BBX 11 20 -1 -4
BITMAP
0000
0000
0000
0000
0000
0000
0000
0000
0000
0000
0000
0000
0000
0000
0000
0000
0000
0000
0000
0000
ENDCHAR
STARTCHAR exclam
ENCODING 33
SWIDTH 250 0
DWIDTH 5 0
BBX 11 20 -1 -4
BITMAP
0000
0000
0000
0000
00C0
0180
0180
0180
0300
0300
0300
0600
0600
0000
0000
0C00
0000
0000
0000
0000
ENDCHAR
STARTCHAR quotedbl
ENCODING 34
SWIDTH 350 0
DWIDTH 7 0
BBX 13 20 -1 -4
BITMAP
0000
0000
0000
0000
01B0
0360
0360
0360
0000
0000
0000
0000
0000
0000
0000
0000
0000
0000
0000
0000
ENDCHAR
STARTCHAR numbersign
ENCODING 35
SWIDTH 500 0
DWIDTH 10 0
BBX 16 20 -1 -4
BITMAP
0000
0000
0000
0000
006C
00D8
00D8
03FC
0360
0360
0360
06C0
1FE0
0D80
1B00
1B00
0000
0000
0000
0000
ENDCHAR
STARTCHAR dollar
ENCODING 36
SWIDTH 500 0
DWIDTH 10 0
BBX 16 20 -1 -4
BITMAP
0000
0000
0000
0030
0078
01F8
036C
0360
03C0
01E0
00F0
01B0
01B0
0DB0
0FC0
0780
0300
0000
0000
0000
ENDCHAR
STARTCHAR percent
ENCODING 37
SWIDTH 750 0
DWIDTH 15 0
BBX 21 20 -1 -4
BITMAP
000000
000000
000000
000000
00F030
0330C0
033180
033300
03CC00
001800
003000
00CF00
019980
031980
0C3300
181E00
000000
000000
000000
000000
ENDCHAR
STARTCHAR ampersand
ENCODING 38
SWIDTH 600 0
DWIDTH 12 0
BBX 18 20 -1 -4
BITMAP
000000
000000
000000
000000
007000
01B000
01B000
01B000
01C000
01C000
036000
0C6C00
0C3C00
0C1800
0C7800
07CC00
000000
000000
000000
000000
ENDCHAR
STARTCHAR quoteright
ENCODING 39
SWIDTH 200 0
DWIDTH 4 0
BBX 10 20 -1 -4
BITMAP
0000
0000
0000
0000
0180
0300
0300
0300
0000
0000
0000
0000
0000
0000
0000
0000
0000
0000
0000
0000
ENDCHAR
STARTCHAR parenleft
ENCODING 40
SWIDTH 300 0
DWIDTH 6 0
BBX 12 20 -1 -4
BITMAP
0000
0000
0000
0060
00C0
0180
0180
0300
0600
0600
0600
0C00
0C00
0C00
1800
0C00
0C00
1800
0C00
0000
ENDCHAR
STARTCHAR parenright
ENCODING 41
SWIDTH 300 0
DWIDTH 6 0
BBX 12 20 -1 -4
BITMAP
0000
0000
0000
0180
00C0
0180
0180
00C0
0180
0180
0180
0300
0300
0300
0600
0C00
0C00
1800
3000
0000
ENDCHAR
STARTCHAR asterisk
ENCODING 42
SWIDTH 350 0
DWIDTH 7 0
BBX 13 20 -1 -4
BITMAP
0000
0000
0000
0060
01F8
01E0
01E0
0330
0000
0000
0000
0000
0000
0000
0000
0000
0000
0000
0000
0000
ENDCHAR
STARTCHAR plus
ENCODING 43
SWIDTH 500 0
DWIDTH 10 0
BBX 16 20 -1 -4
BITMAP
0000
0000
0000
0000
0000
0000
0000
0060
00C0
00C0
07F8
0180
0180
0180
0000
0000
0000
0000
0000
0000
ENDCHAR
STARTCHAR comma
ENCODING 44
SWIDTH 250 0
DWIDTH 5 0
BBX 11 20 -1 -4
BITMAP
0000
0000
0000
0000
0000
0000
0000
0000
0000
0000
0000
0000
0000
0000
0000
0C00
1800
0000
0000
0000
ENDCHAR
STARTCHAR minus
ENCODING 45
SWIDTH 300 0
DWIDTH 6 0
BBX 12 20 -1 -4
BITMAP
0000
0000
0000
0000
0000
0000
0000
0000
0000
0000
0FC0
0000
0000
0000
0000
0000
0000
0000
0000
0000
ENDCHAR
STARTCHAR period
ENCODING 46
SWIDTH 250 0
DWIDTH 5 0
BBX 11 20 -1 -4
BITMAP
0000
0000
0000
0000
0000
0000
0000
0000
0000
0000
0000
0000
0000
0000
0000
0C00
0000
0000
0000
0000
ENDCHAR
STARTCHAR slash
ENCODING 47
SWIDTH 250 0
DWIDTH 5 0
BBX 11 20 -1 -4
BITMAP
0000
0000
0000
0000
0060
00C0
00C0
00C0
0300
0300
0300
0600
0C00
0C00
1800
1800
2000
0000
0000
0000
ENDCHAR
STARTCHAR zero
ENCODING 48
SWIDTH 500 0
DWIDTH 10 0
BBX 16 20 -1 -4
BITMAP
0000
0000
0000
0000
0078
0198
0198
030C
0618
0618
0618
0C30
0C30
0660
0CC0
0780
0000
0000
0000
0000
ENDCHAR
STARTCHAR one
ENCODING 49
SWIDTH 500 0
DWIDTH 10 0
BBX 16 20 -1 -4
BITMAP
0000
0000
0000
0000
0030
01E0
0060
0060
00C0
00C0
00C0
0180
0180
0180
0300
0300
0000
0000
0000
0000
ENDCHAR
STARTCHAR two
ENCODING 50
SWIDTH 500 0
DWIDTH 10 0
BBX 16 20 -1 -4
BITMAP
0000
0000
0000
0000
0078
0198
030C
030C
0018
0030
0060
0180
0300
0600
1800
1FE0
0000
0000
0000
0000
ENDCHAR
STARTCHAR three
ENCODING 51
SWIDTH 500 0
DWIDTH 10 0
BBX 16 20 -1 -4
BITMAP
0000
0000
0000
0000
0078
0198
030C
030C
0030
01E0
0030
0030
0C30
0C30
0CC0
0780
0000
0000
0000
0000
ENDCHAR
STARTCHAR four
ENCODING 52
SWIDTH 500 0
DWIDTH 10 0
BBX 16 20 -1 -4
BITMAP
0000
0000
0000
0000
000C
0038
0038
0078
01B0
01B0
0330
0C60
0FF0
0060
00C0
00C0
0000
0000
0000
0000
ENDCHAR
STARTCHAR five
ENCODING 53
SWIDTH 500 0
DWIDTH 10 0
BBX 16 20 -1 -4
BITMAP
0000
0000
0000
0000
01FE
0300
0300
0300
07E0
0730
0618
0030
0C30
0C30
0CC0
0780
0000
0000
0000
0000
ENDCHAR
STARTCHAR six
ENCODING 54
SWIDTH 500 0
DWIDTH 10 0
BBX 16 20 -1 -4
BITMAP
0000
0000
0000
0000
0078
0198
030C
0300
07E0
0730
0618
0C30
0C30
0C30
0CC0
0780
0000
0000
0000
0000
ENDCHAR
STARTCHAR seven
ENCODING 55
SWIDTH 500 0
DWIDTH 10 0
BBX 16 20 -1 -4
BITMAP
0000
0000
0000
0000
01FE
000C
000C
0018
0030
0060
0060
00C0
0180
0180
0300
0300
0000
0000
0000
0000
ENDCHAR
STARTCHAR eight
ENCODING 56
SWIDTH 500 0
DWIDTH 10 0
BBX 16 20 -1 -4
BITMAP
0000
0000
0000
0000
0078
0198
030C
030C
0330
01E0
0330
0C30
0C30
0C30
0CC0
0780
0000
0000
0000
0000
ENDCHAR
STARTCHAR nine
ENCODING 57
SWIDTH 500 0
DWIDTH 10 0
BBX 16 20 -1 -4
BITMAP
0000
0000
0000
0000
0078
0198
030C
030C
0618
0618
0338
03F0
0030
0C30
0CC0
0780
0000
0000
0000
0000
ENDCHAR
STARTCHAR colon
ENCODING 58
SWIDTH 250 0
DWIDTH 5 0
BBX 11 20 -1 -4
BITMAP
0000
0000
0000
0000
0000
0000
0000
0180
0000
0000
0000
0000
0000
0000
0000
0C00
0000
0000
0000
0000
ENDCHAR
STARTCHAR semicolon
ENCODING 59
SWIDTH 250 0
DWIDTH 5 0
BBX 11 20 -1 -4
BITMAP
0000
0000
0000
0000
0000
0000
0000
0180
0000
0000
0000
0000
0000
0000
0000
0C00
1800
0000
0000
0000
ENDCHAR
STARTCHAR less
ENCODING 60
SWIDTH 500 0
DWIDTH 10 0
BBX 16 20 -1 -4
BITMAP
0000
0000
0000
0000
0000
0000
0000
001C
00E0
0380
0600
0700
01C0
0070
0000
0000
0000
0000
0000
0000
ENDCHAR
STARTCHAR equal
ENCODING 61
SWIDTH 500 0
DWIDTH 10 0
BBX 16 20 -1 -4
BITMAP
0000
0000
0000
0000
0000
0000
0000
0000
07F8
0000
0000
0FF0
0000
0000
0000
0000
0000
0000
0000
0000
ENDCHAR
STARTCHAR greater
ENCODING 62
SWIDTH 500 0
DWIDTH 10 0
BBX 16 20 -1 -4
BITMAP
0000
0000
0000
0000
0000
0000
0000
0380
01C0
0070
0018
00E0
0380
0E00
0000
0000
0000
0000
0000
0000
ENDCHAR
STARTCHAR question
ENCODING 63
SWIDTH 500 0
DWIDTH 10 0
BBX 16 20 -1 -4
BITMAP
0000
0000
0000
0000
0078
0198
030C
030C
0018
0030
0060
0180
0180
0000
0000
0300
0000
0000
0000
0000
ENDCHAR
STARTCHAR at
ENCODING 64
SWIDTH 850 0
DWIDTH 17 0
BBX 23 20 -1 -4
BITMAP
000000
000000
000000
000000
000FE0
007060
00C030
018F18
033330
066330
066330
0CCEC0
0C7F80
060000
070700
01FC00
000000
000000
000000
000000
ENDCHAR
STARTCHAR A
ENCODING 65
SWIDTH 600 0
DWIDTH 12 0
BBX 18 20 -1 -4
BITMAP
000000
000000
000000
000000
001800
003000
007800
007800
019800
019800
030C00
061800
0FFC00
0C0C00
200C00
200C00
000000
000000
000000
000000
ENDCHAR
STARTCHAR B
ENCODING 66
SWIDTH 600 0
DWIDTH 12 0
BBX 18 20 -1 -4
BITMAP
000000
000000
000000
000000
00FE00
018600
018300
018300
030C00
03F800
030C00
060C00
060C00
060C00
0C3000
0FE000
000000
000000
000000
000000
ENDCHAR
STARTCHAR C
ENCODING 67
SWIDTH 600 0
DWIDTH 12 0
BBX 18 20 -1 -4
BITMAP
000000
000000
000000
000000
003E00
01C700
018300
030180
060000
060000
060000
0C0000
0C0600
060C00
0E3800
03E000
000000
000000
000000
000000
ENDCHAR
STARTCHAR D
ENCODING 68
SWIDTH 650 0
DWIDTH 13 0
BBX 19 20 -1 -4
BITMAP
000000
000000
000000
000000
00FE00
018700
018300
018180
030300
030300
030300
060600
060600
060C00
0C3800
0FE000
000000
000000
000000
000000
ENDCHAR
STARTCHAR E
ENCODING 69
SWIDTH 600 0
DWIDTH 12 0
BBX 18 20 -1 -4
BITMAP
000000
000000
000000
000000
00FF80
018000
018000
018000
030000
03FC00
030000
060000
060000
060000
0C0000
0FF800
000000
000000
000000
000000
ENDCHAR
STARTCHAR F
ENCODING 70
SWIDTH 550 0
DWIDTH 11 0
BBX 17 20 -1 -4
BITMAP
000000
000000
000000
000000
00FF80
018000
018000
018000
030000
03FC00
030000
060000
060000
060000
0C0000
0C0000
000000
000000
000000
000000
ENDCHAR
STARTCHAR G
ENCODING 71
SWIDTH 700 0
DWIDTH 14 0
BBX 20 20 -1 -4
BITMAP
000000
000000
000000
000000
003E00
01C700
018300
030180
060000
060000
063F00
0C0600
0C0600
060E00
0E3C00
03EC00
000000
000000
000000
000000
ENDCHAR
STARTCHAR H
ENCODING 72
SWIDTH 650 0
DWIDTH 13 0
BBX 19 20 -1 -4
BITMAP
000000
000000
000000
000000
00C180
018300
018300
018300
030600
03FE00
030600
060C00
060C00
060C00
0C1800
0C1800
000000
000000
000000
000000
ENDCHAR
STARTCHAR I
ENCODING 73
SWIDTH 300 0
DWIDTH 6 0
BBX 12 20 -1 -4
BITMAP
0000
0000
0000
0000
00C0
0180
0180
0180
0300
0300
0300
0600
0600
0600
0C00
0C00
0000
0000
0000
0000
ENDCHAR
STARTCHAR J
ENCODING 74
SWIDTH 450 0
DWIDTH 9 0
BBX 15 20 -1 -4
BITMAP
0000
0000
0000
0000
0018
0030
0030
0030
0060
0060
0060
00C0
10C0
10C0
2180
1F00
0000
0000
0000
0000
ENDCHAR
STARTCHAR K
ENCODING 75
SWIDTH 550 0
DWIDTH 11 0
BBX 17 20 -1 -4
BITMAP
000000
000000
000000
000000
00C300
018C00
019800
01B000
03C000
038000
03C000
06C000
066000
063000
0C3000
0C1800
000000
000000
000000
000000
ENDCHAR
STARTCHAR L
ENCODING 76
SWIDTH 500 0
DWIDTH 10 0
BBX 16 20 -1 -4
BITMAP
0000
0000
0000
0000
00C0
0180
0180
0180
0300
0300
0300
0600
0600
0600
0C00
0FF0
0000
0000
0000
0000
ENDCHAR
STARTCHAR M
ENCODING 77
SWIDTH 700 0
DWIDTH 14 0
BBX 20 20 -1 -4
BITMAP
000000
000000
000000
000000
00C0C0
018180
01C380
01C380
03CF00
03CF00
037B00
06F600
066600
066600
0C0C00
0C0C00
000000
000000
000000
000000
ENDCHAR
STARTCHAR N
ENCODING 78
SWIDTH 600 0
DWIDTH 12 0
BBX 18 20 -1 -4
BITMAP
000000
000000
000000
000000
00C300
01C600
01C600
01E600
03CC00
036C00
036C00
067800
067800
063800
0C7000
0C3000
000000
000000
000000
000000
ENDCHAR
STARTCHAR O
ENCODING 79
SWIDTH 650 0
DWIDTH 13 0
BBX 19 20 -1 -4
BITMAP
000000
000000
000000
000000
003E00
01C700
018300
030180
060300
060300
060300
0C0600
0C0600
060C00
0E3800
03E000
000000
000000
000000
000000
ENDCHAR
STARTCHAR P
ENCODING 80
SWIDTH 550 0
DWIDTH 11 0
BBX 17 20 -1 -4
BITMAP
000000
000000
000000
000000
00FE00
018600
018300
018300
030600
030C00
03F800
060000
060000
060000
0C0000
0C0000
000000
000000
000000
000000
ENDCHAR
STARTCHAR Q
ENCODING 81
SWIDTH 650 0
DWIDTH 13 0
BBX 19 20 -1 -4
BITMAP
000000
000000
000000
000000
003E00
01C700
018300
030180
060300
060300
060300
0C0600
0C6600
063C00
0E3800
03F800
000C00
000000
000000
000000
ENDCHAR
STARTCHAR R
ENCODING 82
SWIDTH 650 0
DWIDTH 13 0
BBX 19 20 -1 -4
BITMAP
000000
000000
000000
000000
00FE00
018600
018300
018300
030600
030C00
03F800
061800
060C00
060C00
0C1800
0C0C00
000000
000000
000000
000000
ENDCHAR
STARTCHAR S
ENCODING 83
SWIDTH 600 0
DWIDTH 12 0
BBX 18 20 -1 -4
BITMAP
000000
000000
000000
000000
007E00
018600
030300
030000
030000
01F800
000C00
000C00
000C00
0C0C00
0C3000
07E000
000000
000000
000000
000000
ENDCHAR
STARTCHAR T
ENCODING 84
SWIDTH 500 0
DWIDTH 10 0
BBX 16 20 -1 -4
BITMAP
0000
0000
0000
0000
03FF
0060
0060
0060
00C0
00C0
00C0
0180
0180
0180
0300
0300
0000
0000
0000
0000
ENDCHAR
STARTCHAR U
ENCODING 85
SWIDTH 650 0
DWIDTH 13 0
BBX 19 20 -1 -4
BITMAP
000000
000000
000000
000000
00C180
018300
018300
018300
030600
030600
030600
060C00
060C00
060C00
063000
03E000
000000
000000
000000
000000
ENDCHAR
STARTCHAR V
ENCODING 86
SWIDTH 600 0
DWIDTH 12 0
BBX 18 20 -1 -4
BITMAP
000000
000000
000000
000000
0200C0
040180
030300
030300
030C00
030C00
019800
033000
01E000
01E000
018000
018000
000000
000000
000000
000000
ENDCHAR
STARTCHAR W
ENCODING 87
SWIDTH 800 0
DWIDTH 16 0
BBX 22 20 -1 -4
BITMAP
000000
000000
000000
000000
02000C
040C18
030C30
030C30
063C60
033CC0
033CC0
03CF00
03CF00
018600
030C00
030C00
000000
000000
000000
000000
ENDCHAR
STARTCHAR X
ENCODING 88
SWIDTH 600 0
DWIDTH 12 0
BBX 18 20 -1 -4
BITMAP
000000
000000
000000
000000
0200C0
030300
018600
00CC00
00F000
006000
006000
01E000
033000
061800
181800
200C00
000000
000000
000000
000000
ENDCHAR
STARTCHAR Y
ENCODING 89
SWIDTH 600 0
DWIDTH 12 0
BBX 18 20 -1 -4
BITMAP
000000
000000
000000
000000
0200C0
030300
018600
00CC00
00F000
006000
006000
00C000
00C000
00C000
018000
018000
000000
000000
000000
000000
ENDCHAR
STARTCHAR Z
ENCODING 90
SWIDTH 550 0
DWIDTH 11 0
BBX 17 20 -1 -4
BITMAP
000000
000000
000000
000000
01FF80
000300
000600
000C00
003000
006000
00C000
030000
060000
0C0000
200000
3FF000
000000
000000
000000
000000
ENDCHAR
STARTCHAR bracketleft
ENCODING 91
SWIDTH 250 0
DWIDTH 5 0
BBX 11 20 -1 -4
BITMAP
0000
0000
0000
0000
01C0
0300
0300
0300
0600
0600
0600
0C00
0C00
0C00
1800
1800
1800
3000
3800
0000
ENDCHAR
STARTCHAR backslash
ENCODING 92
SWIDTH 250 0
DWIDTH 5 0
BBX 11 20 -1 -4
BITMAP
0000
0000
0000
0000
0200
0400
0400
0400
0600
0600
0600
0C00
0600
0600
0C00
0C00
0600
0000
0000
0000
ENDCHAR
STARTCHAR bracketright
ENCODING 93
SWIDTH 250 0
DWIDTH 5 0
BBX 11 20 -1 -4
BITMAP
0000
0000
0000
0000
01C0
0180
0180
0180
0300
0300
0300
0600
0600
0600
0C00
0C00
0C00
1800
3800
0000
ENDCHAR
STARTCHAR asciicircum
ENCODING 94
SWIDTH 400 0
DWIDTH 8 0
BBX 14 20 -1 -4
BITMAP
0000
0000
0000
0060
00F0
0330
0000
0000
0000
0000
0000
0000
0000
0000
0000
0000
0000
0000
0000
0000
ENDCHAR
STARTCHAR underscore
ENCODING 95
SWIDTH 500 0
DWIDTH 10 0
BBX 16 20 -1 -4
BITMAP
0000
0000
0000
0000
0000
0000
0000
0000
0000
0000
0000
0000
0000
0000
0000
0000
0000
7FE0
0000
0000
ENDCHAR
STARTCHAR quoteleft
ENCODING 96
SWIDTH 300 0
DWIDTH 6 0
BBX 12 20 -1 -4
BITMAP
0000
0000
0000
0180
00C0
00C0
0000
0000
0000
0000
0000
0000
0000
0000
0000
0000
0000
0000
0000
0000
ENDCHAR
STARTCHAR a
ENCODING 97
SWIDTH 500 0
DWIDTH 10 0
BBX 16 20 -1 -4
BITMAP
0000
0000
0000
0000
0000
0000
0000
01F8
0618
0018
0018
07F0
0C30
0C30
1860
0FF0
0000
0000
0000
0000
ENDCHAR
STARTCHAR b
ENCODING 98
SWIDTH 500 0
DWIDTH 10 0
BBX 16 20 -1 -4
BITMAP
0000
0000
0000
0000
0180
0300
0300
03F0
0730
0618
0618
0C30
0C30
0C30
1CC0
1F80
0000
0000
0000
0000
ENDCHAR
STARTCHAR c
ENCODING 99
SWIDTH 450 0
DWIDTH 9 0
BBX 15 20 -1 -4
BITMAP
0000
0000
0000
0000
0000
0000
0000
00F0
0330
0618
0600
0C00
0C00
0C30
0CC0
0780
0000
0000
0000
0000
ENDCHAR
STARTCHAR d
ENCODING 100
SWIDTH 500 0
DWIDTH 10 0
BBX 16 20 -1 -4
BITMAP
0000
0000
0000
0000
0006
000C
000C
00FC
0338
0618
0618
0C30
0C30
0C30
0CE0
07E0
0000
0000
0000
0000
ENDCHAR
STARTCHAR e
ENCODING 101
SWIDTH 500 0
DWIDTH 10 0
BBX 16 20 -1 -4
BITMAP
0000
0000
0000
0000
0000
0000
0000
00F0
0330
0618
0618
0FF0
0C00
0C30
0CC0
0780
0000
0000
0000
0000
ENDCHAR
STARTCHAR f
ENCODING 102
SWIDTH 300 0
DWIDTH 6 0
BBX 12 20 -1 -4
BITMAP
0000
0000
0000
0000
0070
0180
0180
07E0
0300
0300
0300
0600
0600
0600
0C00
0C00
0000
0000
0000
0000
ENDCHAR
STARTCHAR g
ENCODING 103
SWIDTH 500 0
DWIDTH 10 0
BBX 16 20 -1 -4
BITMAP
0000
0000
0000
0000
0000
0000
0000
00FC
0338
0618
0618
0C30
0C30
0C30
0CE0
07E0
0060
00C0
0180
1F00
ENDCHAR
STARTCHAR h
ENCODING 104
SWIDTH 500 0
DWIDTH 10 0
BBX 16 20 -1 -4
BITMAP
0000
0000
0000
0000
0180
0300
0300
03F0
0730
0618
0618
0C30
0C30
0C30
1860
1860
0000
0000
0000
0000
ENDCHAR
STARTCHAR i
ENCODING 105
SWIDTH 200 0
DWIDTH 4 0
BBX 10 20 -1 -4
BITMAP
0000
0000
0000
0000
0180
0000
0000
0300
0600
0600
0600
0C00
0C00
0C00
1800
1800
0000
0000
0000
0000
ENDCHAR
STARTCHAR j
ENCODING 106
SWIDTH 200 0
DWIDTH 4 0
BBX 10 20 -1 -4
BITMAP
0000
0000
0000
0000
0180
0000
0000
0300
0600
0600
0600
0C00
0C00
0C00
1800
1800
1800
3000
3000
4000
ENDCHAR
STARTCHAR k
ENCODING 107
SWIDTH 450 0
DWIDTH 9 0
BBX 15 20 -1 -4
BITMAP
0000
0000
0000
0000
0180
0300
0300
0318
0660
06C0
0780
0F00
0D80
0CC0
18C0
1860
0000
0000
0000
0000
ENDCHAR
STARTCHAR l
ENCODING 108
SWIDTH 200 0
DWIDTH 4 0
BBX 10 20 -1 -4
BITMAP
0000
0000
0000
0000
0180
0300
0300
0300
0600
0600
0600
0C00
0C00
0C00
1800
1800
0000
0000
0000
0000
ENDCHAR
STARTCHAR m
ENCODING 109
SWIDTH 700 0
DWIDTH 14 0
BBX 20 20 -1 -4
BITMAP
000000
000000
000000
000000
000000
000000
000000
03E700
077B00
063180
063180
0C6300
0C6300
0C6300
18C600
18C600
000000
000000
000000
000000
ENDCHAR
STARTCHAR n
ENCODING 110
SWIDTH 500 0
DWIDTH 10 0
BBX 16 20 -1 -4
BITMAP
0000
0000
0000
0000
0000
0000
0000
03F0
0730
0618
0618
0C30
0C30
0C30
1860
1860
0000
0000
0000
0000
ENDCHAR
STARTCHAR o
ENCODING 111
SWIDTH 500 0
DWIDTH 10 0
BBX 16 20 -1 -4
BITMAP
0000
0000
0000
0000
0000
0000
0000
00F0
0330
0618
0618
0C30
0C30
0C30
0CC0
0780
0000
0000
0000
0000
ENDCHAR
STARTCHAR p
ENCODING 112
SWIDTH 500 0
DWIDTH 10 0
BBX 16 20 -1 -4
BITMAP
0000
0000
0000
0000
0000
0000
0000
03F0
0730
0618
0618
0C30
0C30
0C30
1CC0
1F80
1800
3000
3000
3000
ENDCHAR
STARTCHAR q
ENCODING 113
SWIDTH 500 0
DWIDTH 10 0
BBX 16 20 -1 -4
BITMAP
0000
0000
0000
0000
0000
0000
0000
00FC
0338
0618
0618
0C30
0C30
0C30
0CE0
07E0
0060
00C0
00C0
00C0
ENDCHAR
STARTCHAR r
ENCODING 114
SWIDTH 300 0
DWIDTH 6 0
BBX 12 20 -1 -4
BITMAP
0000
0000
0000
0000
0000
0000
0000
03E0
0700
0600
0600
0C00
0C00
0C00
1800
1800
0000
0000
0000
0000
ENDCHAR
STARTCHAR s
ENCODING 115
SWIDTH 450 0
DWIDTH 9 0
BBX 15 20 -1 -4
BITMAP
0000
0000
0000
0000
0000
0000
0000
01F0
0630
0600
0600
07C0
0060
0060
18C0
0F80
0000
0000
0000
0000
ENDCHAR
STARTCHAR t
ENCODING 116
SWIDTH 300 0
DWIDTH 6 0
BBX 12 20 -1 -4
BITMAP
0000
0000
0000
0000
00C0
0180
0180
07E0
0300
0300
0300
0600
0600
0600
0C00
0600
0000
0000
0000
0000
ENDCHAR
STARTCHAR u
ENCODING 117
SWIDTH 500 0
DWIDTH 10 0
BBX 16 20 -1 -4
BITMAP
0000
0000
0000
0000
0000
0000
0000
030C
0618
0618
0618
0C30
0C30
0C30
0CE0
07E0
0000
0000
0000
0000
ENDCHAR
STARTCHAR v
ENCODING 118
SWIDTH 400 0
DWIDTH 8 0
BBX 14 20 -1 -4
BITMAP
0000
0000
0000
0000
0000
0000
0000
0418
0830
0660
0660
0780
0780
0300
0600
0600
0000
0000
0000
0000
ENDCHAR
STARTCHAR w
ENCODING 119
SWIDTH 600 0
DWIDTH 12 0
BBX 18 20 -1 -4
BITMAP
000000
000000
000000
000000
000000
000000
000000
040180
086300
066600
066600
07F800
07F800
033000
066000
066000
000000
000000
000000
000000
ENDCHAR
STARTCHAR x
ENCODING 120
SWIDTH 400 0
DWIDTH 8 0
BBX 14 20 -1 -4
BITMAP
0000
0000
0000
0000
0000
0000
0000
0418
0660
0660
03C0
0300
0780
0CC0
1980
20C0
0000
0000
0000
0000
ENDCHAR
STARTCHAR y
ENCODING 121
SWIDTH 400 0
DWIDTH 8 0
BBX 14 20 -1 -4
BITMAP
0000
0000
0000
0000
0000
0000
0000
0418
0830
0660
0660
0780
0780
0300
0600
0C00
0C00
3000
3000
4000
ENDCHAR
STARTCHAR z
ENCODING 122
SWIDTH 450 0
DWIDTH 9 0
BBX 15 20 -1 -4
BITMAP
0000
0000
0000
0000
0000
0000
0000
03F8
0030
0060
00C0
0300
0300
0600
1800
1FC0
0000
0000
0000
0000
ENDCHAR
STARTCHAR braceleft
ENCODING 123
SWIDTH 300 0
DWIDTH 6 0
BBX 12 20 -1 -4
BITMAP
0000
0000
0000
0000
0060
0180
0180
0180
0300
0300
0300
0C00
0600
0600
0C00
0C00
0C00
1800
0C00
0000
ENDCHAR
STARTCHAR bar
ENCODING 124
SWIDTH 300 0
DWIDTH 6 0
BBX 12 20 -1 -4
BITMAP
0000
0000
0000
0000
00C0
0180
0180
0180
0300
0300
0300
0600
0600
0600
0C00
0C00
0C00
0000
0000
0000
ENDCHAR
STARTCHAR braceright
ENCODING 125
SWIDTH 300 0
DWIDTH 6 0
BBX 12 20 -1 -4
BITMAP
0000
0000
0000
0000
0180
0180
0180
0180
0300
0300
0300
0300
0600
0600
0C00
0C00
0C00
1800
3000
0000
ENDCHAR
STARTCHAR asciitilde
ENCODING 126
SWIDTH 500 0
DWIDTH 10 0
BBX 16 20 -1 -4
BITMAP
0000
0000
0000
00E6
01B6
0338
0000
0000
0000
0000
0000
0000
0000
0000
0000
0000
0000
0000
0000
0000
ENDCHAR
STARTCHAR C177
ENCODING -1
SWIDTH 300 0
DWIDTH 6 0
BBX 12 20 -1 -4
BITMAP
0000
0000
0000
0000
01E0
03C0
03C0
03C0
0780
0780
0780
0F00
0F00
0F00
1E00
1E00
0000
0000
0000
0000
ENDCHAR
STARTCHAR C200
ENCODING -1
SWIDTH 300 0
DWIDTH 6 0
BBX 12 20 -1 -4
BITMAP
0000
0000
0000
0000
01E0
03C0
03C0
03C0
0780
0780
0780
0F00
0F00
0F00
1E00
1E00
0000
0000
0000
0000
ENDCHAR
STARTCHAR C201
ENCODING -1
SWIDTH 300 0
DWIDTH 6 0
BBX 12 20 -1 -4
BITMAP
0000
0000
0000
0000
01E0
03C0
03C0
03C0
0780
0780
0780
0F00
0F00
0F00
1E00
1E00
0000
0000
0000
0000
ENDCHAR
STARTCHAR C202
ENCODING -1
SWIDTH 300 0
DWIDTH 6 0
BBX 12 20 -1 -4
BITMAP
0000
0000
0000
0000
01E0
03C0
03C0
03C0
0780
0780
0780
0F00
0F00
0F00
1E00
1E00
0000
0000
0000
0000
ENDCHAR
STARTCHAR C203
ENCODING -1
SWIDTH 300 0
DWIDTH 6 0
BBX 12 20 -1 -4
BITMAP
0000
0000
0000
0000
01E0
03C0
03C0
03C0
0780
0780
0780
0F00
0F00
0F00
1E00
1E00
0000
0000
0000
0000
ENDCHAR
STARTCHAR C204
ENCODING -1
SWIDTH 300 0
DWIDTH 6 0
BBX 12 20 -1 -4
BITMAP
0000
0000
0000
0000
01E0
03C0
03C0
03C0
0780
0780
0780
0F00
0F00
0F00
1E00
1E00
0000
0000
0000
0000
ENDCHAR
STARTCHAR C205
ENCODING -1
SWIDTH 300 0
DWIDTH 6 0
BBX 12 20 -1 -4
BITMAP
0000
0000
0000
0000
01E0
03C0
03C0
03C0
0780
0780
0780
0F00
0F00
0F00
1E00
1E00
0000
0000
0000
0000
ENDCHAR
STARTCHAR C206
ENCODING -1
SWIDTH 300 0
DWIDTH 6 0
BBX 12 20 -1 -4
BITMAP
0000
0000
0000
0000
01E0
03C0
03C0
03C0
0780
0780
0780
0F00
0F00
0F00
1E00
1E00
0000
0000
0000
0000
ENDCHAR
STARTCHAR C207
ENCODING -1
SWIDTH 300 0
DWIDTH 6 0
BBX 12 20 -1 -4
BITMAP
0000
0000
0000
0000
01E0
03C0
03C0
03C0
0780
0780
0780
0F00
0F00
0F00
1E00
1E00
0000
0000
0000
0000
ENDCHAR
STARTCHAR C210
ENCODING -1
SWIDTH 300 0
DWIDTH 6 0
BBX 12 20 -1 -4
BITMAP
0000
0000
0000
0000
01E0
03C0
03C0
03C0
0780
0780
0780
0F00
0F00
0F00
1E00
1E00
0000
0000
0000
0000
ENDCHAR
STARTCHAR C211
ENCODING -1
SWIDTH 300 0
DWIDTH 6 0
BBX 12 20 -1 -4
BITMAP
0000
0000
0000
0000
01E0
03C0
03C0
03C0
0780
0780
0780
0F00
0F00
0F00
1E00
1E00
0000
0000
0000
0000
ENDCHAR
STARTCHAR C212
ENCODING -1
SWIDTH 300 0
DWIDTH 6 0
BBX 12 20 -1 -4
BITMAP
0000
0000
0000
0000
01E0
03C0
03C0
03C0
0780
0780
0780
0F00
0F00
0F00
1E00
1E00
0000
0000
0000
0000
ENDCHAR
STARTCHAR C213
ENCODING -1
SWIDTH 300 0
DWIDTH 6 0
BBX 12 20 -1 -4
BITMAP
0000
0000
0000
0000
01E0
03C0
03C0
03C0
0780
0780
0780
0F00
0F00
0F00
1E00
1E00
0000
0000
0000
0000
ENDCHAR
STARTCHAR C214
ENCODING -1
SWIDTH 300 0
DWIDTH 6 0
BBX 12 20 -1 -4
BITMAP
0000
0000
0000
0000
01E0
03C0
03C0
03C0
0780
0780
0780
0F00
0F00
0F00
1E00
1E00
0000
0000
0000
0000
ENDCHAR
STARTCHAR C215
ENCODING -1
SWIDTH 300 0
DWIDTH 6 0
BBX 12 20 -1 -4
BITMAP
0000
0000
0000
0000
01E0
03C0
03C0
03C0
0780
0780
0780
0F00
0F00
0F00
1E00
1E00
0000
0000
0000
0000
ENDCHAR
STARTCHAR C216
ENCODING -1
SWIDTH 300 0
DWIDTH 6 0
BBX 12 20 -1 -4
BITMAP
0000
0000
0000
0000
01E0
03C0
03C0
03C0
0780
0780
0780
0F00
0F00
0F00
1E00
1E00
0000
0000
0000
0000
ENDCHAR
STARTCHAR C217
ENCODING -1
SWIDTH 300 0
DWIDTH 6 0
BBX 12 20 -1 -4
BITMAP
0000
0000
0000
0000
01E0
03C0
03C0
03C0
0780
0780
0780
0F00
0F00
0F00
1E00
1E00
0000
0000
0000
0000
ENDCHAR
STARTCHAR C220
ENCODING -1
SWIDTH 300 0
DWIDTH 6 0
BBX 12 20 -1 -4
BITMAP
0000
0000
0000
0000
01E0
03C0
03C0
03C0
0780
0780
0780
0F00
0F00
0F00
1E00
1E00
0000
0000
0000
0000
ENDCHAR
STARTCHAR C221
ENCODING -1
SWIDTH 250 0
DWIDTH 5 0
BBX 11 20 -1 -4
BITMAP
0000
0000
0000
0000
00C0
0300
0000
0000
0000
0000
0000
0000
0000
0000
0000
0000
0000
0000
0000
0000
ENDCHAR
STARTCHAR C222
ENCODING -1
SWIDTH 250 0
DWIDTH 5 0
BBX 11 20 -1 -4
BITMAP
0000
0000
0000
0000
00C0
0300
0000
0000
0000
0000
0000
0000
0000
0000
0000
0000
0000
0000
0000
0000
ENDCHAR
STARTCHAR C223
ENCODING -1
SWIDTH 300 0
DWIDTH 6 0
BBX 12 20 -1 -4
BITMAP
0000
0000
0000
0000
01E0
03C0
03C0
03C0
0780
0780
0780
0F00
0F00
0F00
1E00
1E00
0000
0000
0000
0000
ENDCHAR
STARTCHAR C224
ENCODING -1
SWIDTH 300 0
DWIDTH 6 0
BBX 12 20 -1 -4
BITMAP
0000
0000
0000
0000
01E0
03C0
03C0
03C0
0780
0780
0780
0F00
0F00
0F00
1E00
1E00
0000
0000
0000
0000
ENDCHAR
STARTCHAR C225
ENCODING -1
SWIDTH 300 0
DWIDTH 6 0
BBX 12 20 -1 -4
BITMAP
0000
0000
0000
0000
01E0
03C0
03C0
03C0
0780
0780
0780
0F00
0F00
0F00
1E00
1E00
0000
0000
0000
0000
ENDCHAR
STARTCHAR C226
ENCODING -1
SWIDTH 300 0
DWIDTH 6 0
BBX 12 20 -1 -4
BITMAP
0000
0000
0000
0000
01E0
03C0
03C0
03C0
0780
0780
0780
0F00
0F00
0F00
1E00
1E00
0000
0000
0000
0000
ENDCHAR
STARTCHAR C227
ENCODING -1
SWIDTH 300 0
DWIDTH 6 0
BBX 12 20 -1 -4
BITMAP
0000
0000
0000
0000
01E0
03C0
03C0
03C0
0780
0780
0780
0F00
0F00
0F00
1E00
1E00
0000
0000
0000
0000
ENDCHAR
STARTCHAR C230
ENCODING -1
SWIDTH 300 0
DWIDTH 6 0
BBX 12 20 -1 -4
BITMAP
0000
0000
0000
0000
01E0
03C0
03C0
03C0
0780
0780
0780
0F00
0F00
0F00
1E00
1E00
0000
0000
0000
0000
ENDCHAR
STARTCHAR C231
ENCODING -1
SWIDTH 300 0
DWIDTH 6 0
BBX 12 20 -1 -4
BITMAP
0000
0000
0000
0000
01E0
03C0
03C0
03C0
0780
0780
0780
0F00
0F00
0F00
1E00
1E00
0000
0000
0000
0000
ENDCHAR
STARTCHAR C232
ENCODING -1
SWIDTH 300 0
DWIDTH 6 0
BBX 12 20 -1 -4
BITMAP
0000
0000
0000
0000
01E0
03C0
03C0
03C0
0780
0780
0780
0F00
0F00
0F00
1E00
1E00
0000
0000
0000
0000
ENDCHAR
STARTCHAR C233
ENCODING -1
SWIDTH 300 0
DWIDTH 6 0
BBX 12 20 -1 -4
BITMAP
0000
0000
0000
0000
01E0
03C0
03C0
03C0
0780
0780
0780
0F00
0F00
0F00
1E00
1E00
0000
0000
0000
0000
ENDCHAR
STARTCHAR C234
ENCODING 176
SWIDTH 300 0
DWIDTH 6 0
BBX 12 20 -1 -4
BITMAP
0000
0000
0000
0000
01E0
03C0
03C0
03C0
0780
0780
0780
0F00
0F00
0F00
1E00
1E00
0000
0000
0000
0000
ENDCHAR
STARTCHAR C235
ENCODING 178
SWIDTH 300 0
DWIDTH 6 0
BBX 12 20 -1 -4
BITMAP
0000
0000
0000
0000
01E0
03C0
03C0
03C0
0780
0780
0780
0F00
0F00
0F00
1E00
1E00
0000
0000
0000
0000
ENDCHAR
STARTCHAR C236
ENCODING -1
SWIDTH 300 0
DWIDTH 6 0
BBX 12 20 -1 -4
BITMAP
0000
0000
0000
0000
01E0
03C0
03C0
03C0
0780
0780
0780
0F00
0F00
0F00
1E00
1E00
0000
0000
0000
0000
ENDCHAR
STARTCHAR C237
ENCODING -1
SWIDTH 300 0
DWIDTH 6 0
BBX 12 20 -1 -4
BITMAP
0000
0000
0000
0000
01E0
03C0
03C0
03C0
0780
0780
0780
0F00
0F00
0F00
1E00
1E00
0000
0000
0000
0000
ENDCHAR
STARTCHAR C240
ENCODING 160
SWIDTH 250 0
DWIDTH 5 0
BBX 11 20 -1 -4
BITMAP
0000
0000
0000
0000
0000
0000
0000
0000
0000
0000
0000
0000
0000
0000
0000
0000
0000
0000
0000
0000
ENDCHAR
STARTCHAR exclamdown
ENCODING 161
SWIDTH 250 0
DWIDTH 5 0
BBX 11 20 -1 -4
BITMAP
0000
0000
0000
0000
0000
0000
0000
0300
0000
0000
0600
0C00
0C00
0C00
1800
1800
1800
3000
3000
0000
ENDCHAR
STARTCHAR cent
ENCODING 162
SWIDTH 500 0
DWIDTH 10 0
BBX 16 20 -1 -4
BITMAP
0000
0000
0000
0000
0000
0000
000C
00FC
0330
0678
0660
0D80
0F00
0F30
0CC0
1F80
1800
0000
0000
0000
ENDCHAR
STARTCHAR sterling
ENCODING 163
SWIDTH 500 0
DWIDTH 10 0
BBX 16 20 -1 -4
BITMAP
0000
0000
0000
0000
0078
0198
0198
0180
0180
07F0
0180
0300
0300
0600
0C00
1FE0
0000
0000
0000
0000
ENDCHAR
STARTCHAR currency
ENCODING 164
SWIDTH 500 0
DWIDTH 10 0
BBX 16 20 -1 -4
BITMAP
0000
0000
0000
0000
0000
030C
01F8
0198
0330
0330
03F0
0C30
0000
0000
0000
0000
0000
0000
0000
0000
ENDCHAR
STARTCHAR yen
ENCODING 165
SWIDTH 500 0
DWIDTH 10 0
BBX 16 20 -1 -4
BITMAP
0000
0000
0000
0000
0203
0406
030C
0198
0FFC
00C0
00C0
1FF8
0180
0180
0300
0300
0000
0000
0000
0000
ENDCHAR
STARTCHAR brokenbar
ENCODING 166
SWIDTH 300 0
DWIDTH 6 0
BBX 12 20 -1 -4
BITMAP
0000
0000
0000
0000
00C0
0180
0180
0180
0300
0300
0000
0000
0600
0600
0C00
0C00
0C00
1800
0000
0000
ENDCHAR
STARTCHAR section
ENCODING 167
SWIDTH 500 0
DWIDTH 10 0
BBX 16 20 -1 -4
BITMAP
0000
0000
0000
0000
0078
0198
0180
01C0
06C0
0660
0330
0330
01B0
00E0
00C0
0CC0
0780
0000
0000
0000
ENDCHAR
STARTCHAR dieresis
ENCODING 168
SWIDTH 300 0
DWIDTH 6 0
BBX 12 20 -1 -4
BITMAP
0000
0000
0000
0000
01E0
0000
0000
0000
0000
0000
0000
0000
0000
0000
0000
0000
0000
0000
0000
0000
ENDCHAR
STARTCHAR copyright
ENCODING 191
SWIDTH 600 0
DWIDTH 12 0
BBX 18 20 -1 -4
BITMAP
000000
000000
000000
000000
007E00
038700
030300
047980
099B00
098300
098300
133600
11E600
0C0E00
1C3800
07E000
000000
000000
000000
000000
ENDCHAR
STARTCHAR ordfeminine
ENCODING 170
SWIDTH 350 0
DWIDTH 7 0
BBX 13 20 -1 -4
BITMAP
0000
0000
0000
0000
00E0
0060
01E0
0360
03C0
0000
07C0
0000
0000
0000
0000
0000
0000
0000
0000
0000
ENDCHAR
STARTCHAR guillemotleft
ENCODING 171
SWIDTH 500 0
DWIDTH 10 0
BBX 16 20 -1 -4
BITMAP
0000
0000
0000
0000
0000
0000
0000
0000
0000
0000
0198
0660
0CC0
0660
0660
0000
0000
0000
0000
0000
ENDCHAR
STARTCHAR logicalnot
ENCODING 172
SWIDTH 500 0
DWIDTH 10 0
BBX 16 20 -1 -4
BITMAP
0000
0000
0000
0000
0000
0000
0000
0000
0000
0000
07F8
0030
0030
0000
0000
0000
0000
0000
0000
0000
ENDCHAR
STARTCHAR hyphen
ENCODING 173
SWIDTH 300 0
DWIDTH 6 0
BBX 12 20 -1 -4
BITMAP
0000
0000
0000
0000
0000
0000
0000
0000
0000
0000
0000
1F80
0000
0000
0000
0000
0000
0000
0000
0000
ENDCHAR
STARTCHAR registered
ENCODING 174
SWIDTH 600 0
DWIDTH 12 0
BBX 18 20 -1 -4
BITMAP
000000
000000
000000
007E00
01C380
030300
04F980
04CD80
099B00
09F300
09B300
133600
0C0C00
0E1C00
07E000
000000
000000
000000
000000
000000
ENDCHAR
STARTCHAR macron
ENCODING 175
SWIDTH 500 0
DWIDTH 10 0
BBX 16 20 -1 -4
BITMAP
0000
0000
03FF
0000
0000
0000
0000
0000
0000
0000
0000
0000
0000
0000
0000
0000
0000
0000
0000
0000
ENDCHAR
STARTCHAR degree
ENCODING 156
SWIDTH 300 0
DWIDTH 6 0
BBX 12 20 -1 -4
BITMAP
0000
0000
0000
0000
00E0
0360
0360
01C0
0000
0000
0000
0000
0000
0000
0000
0000
0000
0000
0000
0000
ENDCHAR
STARTCHAR plusminus
ENCODING 177
SWIDTH 500 0
DWIDTH 10 0
BBX 16 20 -1 -4
BITMAP
0000
0000
0000
0000
0000
0000
0000
0060
00C0
00C0
07F8
0180
0180
0180
0000
1FE0
0000
0000
0000
0000
ENDCHAR
STARTCHAR twosuperior
ENCODING 157
SWIDTH 300 0
DWIDTH 6 0
BBX 12 20 -1 -4
BITMAP
0000
0000
0000
0000
00E0
0360
0060
00C0
0300
07C0
0000
0000
0000
0000
0000
0000
0000
0000
0000
0000
ENDCHAR
STARTCHAR threesuperior
ENCODING 179
SWIDTH 300 0
DWIDTH 6 0
BBX 12 20 -1 -4
BITMAP
0000
0000
0000
0000
00E0
0360
00C0
0060
06C0
0380
0000
0000
0000
0000
0000
0000
0000
0000
0000
0000
ENDCHAR
STARTCHAR acute
ENCODING 180
SWIDTH 300 0
DWIDTH 6 0
BBX 12 20 -1 -4
BITMAP
0000
0000
0000
0060
00C0
0300
0000
0000
0000
0000
0000
0000
0000
0000
0000
0000
0000
0000
0000
0000
ENDCHAR
STARTCHAR mu
ENCODING 181
SWIDTH 450 0
DWIDTH 9 0
BBX 15 20 -1 -4
BITMAP
0000
0000
0000
0000
0000
0000
0000
0318
0630
0630
0630
0C60
0C60
0C60
18C0
1FE0
1800
3000
3000
0000
ENDCHAR
STARTCHAR paragraph
ENCODING 182
SWIDTH 450 0
DWIDTH 9 0
BBX 15 20 -1 -4
BITMAP
0000
0000
0000
0000
00FE
03F8
03F8
03F8
07F0
03F0
00F0
01E0
01E0
01E0
03C0
03C0
03C0
0000
0000
0000
ENDCHAR
STARTCHAR periodcentered
ENCODING 183
SWIDTH 250 0
DWIDTH 5 0
BBX 11 20 -1 -4
BITMAP
0000
0000
0000
0000
0000
0000
0000
0000
0000
0300
0000
0000
0000
0000
0000
0000
0000
0000
0000
0000
ENDCHAR
STARTCHAR cedilla
ENCODING 184
SWIDTH 300 0
DWIDTH 6 0
BBX 12 20 -1 -4
BITMAP
0000
0000
0000
0000
0000
0000
0000
0000
0000
0000
0000
0000
0000
0000
0000
0000
0C00
0C00
0C00
3800
ENDCHAR
STARTCHAR onesuperior
ENCODING 185
SWIDTH 300 0
DWIDTH 6 0
BBX 12 20 -1 -4
BITMAP
0000
0000
0000
0000
00C0
0380
0180
0180
0300
0300
0000
0000
0000
0000
0000
0000
0000
0000
0000
0000
ENDCHAR
STARTCHAR ordmasculine
ENCODING 186
SWIDTH 350 0
DWIDTH 7 0
BBX 13 20 -1 -4
BITMAP
0000
0000
0000
0000
00E0
0360
0360
0360
0380
0000
07C0
0000
0000
0000
0000
0000
0000
0000
0000
0000
ENDCHAR
STARTCHAR guillemotright
ENCODING 187
SWIDTH 500 0
DWIDTH 10 0
BBX 16 20 -1 -4
BITMAP
0000
0000
0000
0000
0000
0000
0000
0000
0000
0000
0660
0660
0330
0660
1980
0000
0000
0000
0000
0000
ENDCHAR
STARTCHAR onequarter
ENCODING 188
SWIDTH 650 0
DWIDTH 13 0
BBX 19 20 -1 -4
BITMAP
000000
000000
000000
000000
00C060
038180
018300
018600
031800
033000
006300
018E00
031E00
063600
187C00
200C00
000000
000000
000000
000000
ENDCHAR
STARTCHAR onehalf
ENCODING 189
SWIDTH 650 0
DWIDTH 13 0
BBX 19 20 -1 -4
BITMAP
000000
000000
000000
000000
00C060
038180
018300
018600
031800
033000
006E00
01B600
030600
060C00
183000
207C00
000000
000000
000000
000000
ENDCHAR
STARTCHAR threequarters
ENCODING 190
SWIDTH 650 0
DWIDTH 13 0
BBX 19 20 -1 -4
BITMAP
000000
000000
000000
000000
00E060
036180
00C300
006600
06D800
03B000
006300
018E00
031E00
063600
187C00
200C00
000000
000000
000000
000000
ENDCHAR
STARTCHAR questiondown
ENCODING 169
SWIDTH 500 0
DWIDTH 10 0
BBX 16 20 -1 -4
BITMAP
0000
0000
0000
0000
0000
0000
0000
0060
0000
0000
00C0
0180
0300
0600
1800
1800
1860
1980
0F00
0000
ENDCHAR
STARTCHAR cyr-A
ENCODING 225
SWIDTH 600 0
DWIDTH 12 0
BBX 18 20 -1 -4
BITMAP
000000
000000
000000
000000
001800
003000
007800
007800
019800
019800
030C00
061800
0FFC00
0C0C00
200C00
200C00
000000
000000
000000
000000
ENDCHAR
STARTCHAR cyr-Be
ENCODING 226
SWIDTH 600 0
DWIDTH 12 0
BBX 18 20 -1 -4
BITMAP
000000
000000
000000
000000
00FF00
018000
018000
018000
030000
03F800
030C00
060C00
060C00
060C00
0C3000
0FE000
000000
000000
000000
000000
ENDCHAR
STARTCHAR cyr-Ve
ENCODING 247
SWIDTH 600 0
DWIDTH 12 0
BBX 18 20 -1 -4
BITMAP
000000
000000
000000
000000
00FE00
018600
018300
018300
030C00
03F800
030C00
060C00
060C00
060C00
0C3000
0FE000
000000
000000
000000
000000
ENDCHAR
STARTCHAR cyr-Ghe
ENCODING 231
SWIDTH 600 0
DWIDTH 12 0
BBX 18 20 -1 -4
BITMAP
000000
000000
000000
000000
00FF80
018000
018000
018000
030000
030000
030000
060000
060000
060000
0C0000
0C0000
000000
000000
000000
000000
ENDCHAR
STARTCHAR cyr-De
ENCODING 228
SWIDTH 650 0
DWIDTH 13 0
BBX 19 20 -1 -4
BITMAP
000000
000000
000000
000000
003F80
006300
006300
006300
00C600
00C600
00C600
018C00
018C00
018C00
061800
1FFC00
180C00
301800
000000
000000
ENDCHAR
STARTCHAR cyr-Ie
ENCODING 229
SWIDTH 600 0
DWIDTH 12 0
BBX 18 20 -1 -4
BITMAP
000000
000000
000000
000000
00FF80
018000
018000
018000
030000
03FC00
030000
060000
060000
060000
0C0000
0FF800
000000
000000
000000
000000
ENDCHAR
STARTCHAR cyr-Zhe
ENCODING 246
SWIDTH 800 0
DWIDTH 16 0
BBX 22 20 -1 -4
BITMAP
000000
000000
000000
000000
02060C
030C30
018C60
00CCC0
00DB00
007E00
007E00
01B600
033300
063180
186180
2060C0
000000
000000
000000
000000
ENDCHAR
STARTCHAR cyr-Ze
ENCODING 250
SWIDTH 600 0
DWIDTH 12 0
BBX 18 20 -1 -4
BITMAP
000000
000000
000000
000000
007F00
018300
000300
000300
000600
00FC00
000600
000C00
000C00
000C00
0C1800
07F000
000000
000000
000000
000000
ENDCHAR
STARTCHAR cyr-I
ENCODING 233
SWIDTH 600 0
DWIDTH 12 0
BBX 18 20 -1 -4
BITMAP
000000
000000
000000
000000
00C300
018E00
018E00
019E00
033C00
036C00
036C00
079800
079800
071800
0E3000
0C3000
000000
000000
000000
000000
ENDCHAR
STARTCHAR cyr-I-short
ENCODING 234
SWIDTH 600 0
DWIDTH 12 0
BBX 18 20 -1 -4
BITMAP
000000
000000
006600
003C00
00C300
018E00
018E00
019E00
033C00
036C00
036C00
079800
079800
071800
0E3000
0C3000
000000
000000
000000
000000
ENDCHAR
STARTCHAR cyr-Ka
ENCODING 235
SWIDTH 550 0
DWIDTH 11 0
BBX 17 20 -1 -4
BITMAP
000000
000000
000000
000000
00C300
018C00
019800
01B000
03C000
038000
03C000
06C000
066000
063000
0C3000
0C1800
000000
000000
000000
000000
ENDCHAR
STARTCHAR cyr-El
ENCODING 236
SWIDTH 550 0
DWIDTH 11 0
BBX 17 20 -1 -4
BITMAP
000000
000000
000000
000000
007F00
00C600
00C600
00C600
018C00
018C00
018C00
031800
031800
031800
063000
1C3000
000000
000000
000000
000000
ENDCHAR
STARTCHAR cyr-Em
ENCODING 237
SWIDTH 700 0
DWIDTH 14 0
BBX 20 20 -1 -4
BITMAP
000000
000000
000000
000000
00C0C0
018180
01C380
01C380
03CF00
03CF00
037B00
06F600
066600
066600
0C0C00
0C0C00
000000
000000
000000
000000
ENDCHAR
STARTCHAR cyr-En
ENCODING 238
SWIDTH 650 0
DWIDTH 13 0
BBX 19 20 -1 -4
BITMAP
000000
000000
000000
000000
00C180
018300
018300
018300
030600
03FE00
030600
060C00
060C00
060C00
0C1800
0C1800
000000
000000
000000
000000
ENDCHAR
STARTCHAR cyr-O
ENCODING 239
SWIDTH 650 0
DWIDTH 13 0
BBX 19 20 -1 -4
BITMAP
000000
000000
000000
000000
003E00
01C700
018300
030180
060300
060300
060300
0C0600
0C0600
060C00
0E3800
03E000
000000
000000
000000
000000
ENDCHAR
STARTCHAR cyr-Pe
ENCODING 240
SWIDTH 650 0
DWIDTH 13 0
BBX 19 20 -1 -4
BITMAP
000000
000000
000000
000000
00FF80
018300
018300
018300
030600
030600
030600
060C00
060C00
060C00
0C1800
0C1800
000000
000000
000000
000000
ENDCHAR
STARTCHAR cyr-Er
ENCODING 242
SWIDTH 550 0
DWIDTH 11 0
BBX 17 20 -1 -4
BITMAP
000000
000000
000000
000000
00FE00
018600
018300
018300
030600
030C00
03F800
060000
060000
060000
0C0000
0C0000
000000
000000
000000
000000
ENDCHAR
STARTCHAR cyr-Es
ENCODING 243
SWIDTH 600 0
DWIDTH 12 0
BBX 18 20 -1 -4
BITMAP
000000
000000
000000
000000
003E00
01C700
018300
030180
060000
060000
060000
0C0000
0C0600
060C00
0E3800
03E000
000000
000000
000000
000000
ENDCHAR
STARTCHAR cyr-Te
ENCODING 244
SWIDTH 500 0
DWIDTH 10 0
BBX 16 20 -1 -4
BITMAP
0000
0000
0000
0000
03FF
0060
0060
0060
00C0
00C0
00C0
0180
0180
0180
0300
0300
0000
0000
0000
0000
ENDCHAR
STARTCHAR cyr-U
ENCODING 245
SWIDTH 600 0
DWIDTH 12 0
BBX 18 20 -1 -4
BITMAP
000000
000000
000000
000000
018180
030300
018600
018600
019800
019800
00F000
01E000
00C000
00C000
018000
0F0000
000000
000000
000000
000000
ENDCHAR
STARTCHAR cyr-Ef
ENCODING 230
SWIDTH 650 0
DWIDTH 13 0
BBX 19 20 -1 -4
BITMAP
000000
000000
000000
000000
003F00
01DB80
019980
0318C0
063180
063180
063180
0C6300
066600
076E00
03F000
00C000
000000
000000
000000
000000
ENDCHAR
STARTCHAR cyr-Kha
ENCODING 232
SWIDTH 600 0
DWIDTH 12 0
BBX 18 20 -1 -4
BITMAP
000000
000000
000000
000000
0200C0
030300
018600
00CC00
00F000
006000
006000
01E000
033000
061800
181800
200C00
000000
000000
000000
000000
ENDCHAR
STARTCHAR cyr-Tse
ENCODING 227
SWIDTH 650 0
DWIDTH 13 0
BBX 19 20 -1 -4
BITMAP
000000
000000
000000
000000
00C180
018300
018300
018300
030600
030600
030600
060C00
060C00
060C00
0C1800
0FFC00
000C00
001800
000000
000000
ENDCHAR
STARTCHAR cyr-Che
ENCODING 254
SWIDTH 650 0
DWIDTH 13 0
BBX 19 20 -1 -4
BITMAP
000000
000000
000000
000000
00C180
018300
018300
018300
030600
01FE00
000600
000C00
000C00
000C00
001800
001800
000000
000000
000000
000000
ENDCHAR
STARTCHAR cyr-Sha
ENCODING 251
SWIDTH 800 0
DWIDTH 16 0
BBX 22 20 -1 -4
BITMAP
000000
000000
000000
000000
018618
030C30
030C30
030C30
061860
061860
061860
0C30C0
0C30C0
0C30C0
186180
1FFF80
000000
000000
000000
000000
ENDCHAR
STARTCHAR cyr-Shcha
ENCODING 253
SWIDTH 850 0
DWIDTH 17 0
BBX 23 20 -1 -4
BITMAP
000000
000000
000000
000000
018618
030C30
030C30
030C30
061860
061860
061860
0C30C0
0C30C0
0C30C0
186180
1FFFC0
0000C0
000180
000000
000000
ENDCHAR
STARTCHAR cyr-Ier
ENCODING 255
SWIDTH 650 0
DWIDTH 13 0
BBX 19 20 -1 -4
BITMAP
000000
000000
000000
000000
01E000
00C000
00C000
00C000
018000
01FE00
018300
030300
030300
030300
060C00
07F800
000000
000000
000000
000000
ENDCHAR
STARTCHAR cyr-Iery
ENCODING 249
SWIDTH 750 0
DWIDTH 15 0
BBX 21 20 -1 -4
BITMAP
000000
000000
000000
000000
00C030
018060
018060
018060
0300C0
03FCC0
0306C0
060780
060780
060780
0C1B00
0FF300
000000
000000
000000
000000
ENDCHAR
STARTCHAR cyr-Ierik
ENCODING 248
SWIDTH 600 0
DWIDTH 12 0
BBX 18 20 -1 -4
BITMAP
000000
000000
000000
000000
00C000
018000
018000
018000
030000
03FC00
030600
060600
060600
060600
0C1800
0FF000
000000
000000
000000
000000
ENDCHAR
STARTCHAR cyr-E-rev
ENCODING 252
SWIDTH 650 0
DWIDTH 13 0
BBX 19 20 -1 -4
BITMAP
000000
000000
000000
000000
007F00
018300
030180
000180
000300
00FF00
000300
000600
000600
0C0600
0C1800
07F000
000000
000000
000000
000000
ENDCHAR
STARTCHAR cyr-Yu
ENCODING 224
SWIDTH 700 0
DWIDTH 14 0
BBX 20 20 -1 -4
BITMAP
000000
000000
000000
000000
018F00
037380
036180
03C0C0
078180
078180
078180
0F0300
0F0300
0D8600
1B9C00
18F000
000000
000000
000000
000000
ENDCHAR
STARTCHAR cyr-Ya
ENCODING 241
SWIDTH 600 0
DWIDTH 12 0
BBX 18 20 -1 -4
BITMAP
000000
000000
000000
000000
007F00
018600
030600
030600
060C00
030C00
01FC00
00D800
019800
031800
0C3000
183000
000000
000000
000000
000000
ENDCHAR
STARTCHAR cyr-a
ENCODING 193
SWIDTH 500 0
DWIDTH 10 0
BBX 16 20 -1 -4
BITMAP
0000
0000
0000
0000
0000
0000
0000
01F8
0618
0018
0018
07F0
0C30
0C30
1860
0FF0
0000
0000
0000
0000
ENDCHAR
STARTCHAR cyr-be
ENCODING 194
SWIDTH 500 0
DWIDTH 10 0
BBX 16 20 -1 -4
BITMAP
0000
0000
0000
0000
0006
00F8
0180
03F0
0730
0618
0618
0C30
0C30
0C30
0CC0
0780
0000
0000
0000
0000
ENDCHAR
STARTCHAR cyr-ve
ENCODING 215
SWIDTH 500 0
DWIDTH 10 0
BBX 16 20 -1 -4
BITMAP
0000
0000
0000
0000
0000
0000
0000
03F8
0618
0618
0618
0FE0
0C30
0C30
1860
1FC0
0000
0000
0000
0000
ENDCHAR
STARTCHAR cyr-ghe
ENCODING 199
SWIDTH 500 0
DWIDTH 10 0
BBX 16 20 -1 -4
BITMAP
0000
0000
0000
0000
0000
0000
0000
03FC
0600
0600
0600
0C00
0C00
0C00
1800
1800
0000
0000
0000
0000
ENDCHAR
STARTCHAR cyr-de
ENCODING 196
SWIDTH 550 0
DWIDTH 11 0
BBX 17 20 -1 -4
BITMAP
000000
000000
000000
000000
000000
000000
000000
00FC00
019800
019800
019800
033000
033000
033000
0C6000
1FF000
183000
306000
000000
000000
ENDCHAR
STARTCHAR cyr-ie
ENCODING 197
SWIDTH 500 0
DWIDTH 10 0
BBX 16 20 -1 -4
BITMAP
0000
0000
0000
0000
0000
0000
0000
00F0
0330
0618
0618
0FF0
0C00
0C30
0CC0
0780
0000
0000
0000
0000
ENDCHAR
STARTCHAR cyr-zhe
ENCODING 214
SWIDTH 700 0
DWIDTH 14 0
BBX 20 20 -1 -4
BITMAP
000000
000000
000000
000000
000000
000000
000000
0318C0
033300
01B600
00FC00
01F800
036C00
066600
18C600
20C300
000000
000000
000000
000000
ENDCHAR
STARTCHAR cyr-z
ENCODING 218
SWIDTH 500 0
DWIDTH 10 0
BBX 16 20 -1 -4
BITMAP
0000
0000
0000
0000
0000
0000
0000
01F8
0618
0018
0018
03E0
0030
0C30
1860
0FC0
0000
0000
0000
0000
ENDCHAR
STARTCHAR cyr-i
ENCODING 201
SWIDTH 500 0
DWIDTH 10 0
BBX 16 20 -1 -4
BITMAP
0000
0000
0000
0000
0000
0000
0000
030C
0618
0638
0678
0DB0
0F30
0E30
1860
1860
0000
0000
0000
0000
ENDCHAR
STARTCHAR cyr-i-short
ENCODING 202
SWIDTH 500 0
DWIDTH 10 0
BBX 16 20 -1 -4
BITMAP
0000
0000
0000
0000
0000
0198
00F0
030C
0618
0638
0678
0DB0
0F30
0E30
1860
1860
0000
0000
0000
0000
ENDCHAR
STARTCHAR cyr-ka
ENCODING 203
SWIDTH 450 0
DWIDTH 9 0
BBX 15 20 -1 -4
BITMAP
0000
0000
0000
0000
0000
0000
0000
0318
0660
06C0
0780
0F00
0D80
0CC0
18C0
1860
0000
0000
0000
0000
ENDCHAR
STARTCHAR cyr-el
ENCODING 204
SWIDTH 500 0
DWIDTH 10 0
BBX 16 20 -1 -4
BITMAP
0000
0000
0000
0000
0000
0000
0000
00FC
0198
0198
0198
0330
0330
0330
0660
1C60
0000
0000
0000
0000
ENDCHAR
STARTCHAR cyr-em
ENCODING 205
SWIDTH 600 0
DWIDTH 12 0
BBX 18 20 -1 -4
BITMAP
000000
000000
000000
000000
000000
000000
000000
030300
070E00
079E00
06F600
0CCC00
0C0C00
0C0C00
181800
181800
000000
000000
000000
000000
ENDCHAR
STARTCHAR cyr-en
ENCODING 206
SWIDTH 500 0
DWIDTH 10 0
BBX 16 20 -1 -4
BITMAP
0000
0000
0000
0000
0000
0000
0000
030C
0618
0618
0618
0FF0
0C30
0C30
1860
1860
0000
0000
0000
0000
ENDCHAR
STARTCHAR cyr-o
ENCODING 207
SWIDTH 500 0
DWIDTH 10 0
BBX 16 20 -1 -4
BITMAP
0000
0000
0000
0000
0000
0000
0000
00F0
0330
0618
0618
0C30
0C30
0C30
0CC0
0780
0000
0000
0000
0000
ENDCHAR
STARTCHAR cyr-pe
ENCODING 208
SWIDTH 500 0
DWIDTH 10 0
BBX 16 20 -1 -4
BITMAP
0000
0000
0000
0000
0000
0000
0000
03FC
0618
0618
0618
0C30
0C30
0C30
1860
1860
0000
0000
0000
0000
ENDCHAR
STARTCHAR cyr-er
ENCODING 210
SWIDTH 500 0
DWIDTH 10 0
BBX 16 20 -1 -4
BITMAP
0000
0000
0000
0000
0000
0000
0000
03F0
0730
0618
0618
0C30
0C30
0C30
1CC0
1F80
1800
3000
3000
3000
ENDCHAR
STARTCHAR cyr-es
ENCODING 211
SWIDTH 450 0
DWIDTH 9 0
BBX 15 20 -1 -4
BITMAP
0000
0000
0000
0000
0000
0000
0000
00F0
0330
0618
0600
0C00
0C00
0C30
0CC0
0780
0000
0000
0000
0000
ENDCHAR
STARTCHAR cyr-te
ENCODING 212
SWIDTH 500 0
DWIDTH 10 0
BBX 16 20 -1 -4
BITMAP
0000
0000
0000
0000
0000
0000
0000
03FC
00C0
00C0
00C0
0180
0180
0180
0300
0300
0000
0000
0000
0000
ENDCHAR
STARTCHAR cyr-u
ENCODING 213
SWIDTH 400 0
DWIDTH 8 0
BBX 14 20 -1 -4
BITMAP
0000
0000
0000
0000
0000
0000
0000
0418
0830
0660
0660
0780
0780
0300
0600
0C00
0C00
3000
3000
4000
ENDCHAR
STARTCHAR cyr-ef
ENCODING 198
SWIDTH 500 0
DWIDTH 10 0
BBX 16 20 -1 -4
BITMAP
0000
0000
0000
0000
0000
0000
0060
00F0
03F0
06D8
06D8
0DB0
0DB0
0DB0
0FC0
0780
0300
0600
0600
0600
ENDCHAR
STARTCHAR cyr-kha
ENCODING 200
SWIDTH 400 0
DWIDTH 8 0
BBX 14 20 -1 -4
BITMAP
0000
0000
0000
0000
0000
0000
0000
0418
0660
0660
03C0
0300
0780
0CC0
1980
20C0
0000
0000
0000
0000
ENDCHAR
STARTCHAR cyr-tse
ENCODING 195
SWIDTH 450 0
DWIDTH 9 0
BBX 15 20 -1 -4
BITMAP
0000
0000
0000
0000
0000
0000
0000
0318
0630
0630
0630
0C60
0C60
0C60
18C0
1FE0
0060
00C0
0000
0000
ENDCHAR
STARTCHAR cyr-che
ENCODING 222
SWIDTH 500 0
DWIDTH 10 0
BBX 16 20 -1 -4
BITMAP
0000
0000
0000
0000
0000
0000
0000
030C
0618
0618
0618
07F0
0030
0030
0060
0060
0000
0000
0000
0000
ENDCHAR
STARTCHAR cyr-sha
ENCODING 219
SWIDTH 600 0
DWIDTH 12 0
BBX 18 20 -1 -4
BITMAP
000000
000000
000000
000000
000000
000000
000000
033300
066600
066600
066600
0CCC00
0CCC00
0CCC00
199800
1FF800
000000
000000
000000
000000
ENDCHAR
STARTCHAR cyr-shcha
ENCODING 221
SWIDTH 600 0
DWIDTH 12 0
BBX 18 20 -1 -4
BITMAP
000000
000000
000000
000000
000000
000000
000000
033300
066600
066600
066600
0CCC00
0CCC00
0CCC00
199800
1FFC00
000C00
001800
000000
000000
ENDCHAR
STARTCHAR cyr-ier
ENCODING 223
SWIDTH 550 0
DWIDTH 11 0
BBX 17 20 -1 -4
BITMAP
000000
000000
000000
000000
000000
000000
000000
078000
030000
030000
03F800
061800
061800
061800
0C3000
0FE000
000000
000000
000000
000000
ENDCHAR
STARTCHAR cyr-iery
ENCODING 217
SWIDTH 600 0
DWIDTH 12 0
BBX 18 20 -1 -4
BITMAP
000000
000000
000000
000000
000000
000000
000000
030300
060600
060600
07F600
0C3C00
0C3C00
0C3C00
187800
1FD800
000000
000000
000000
000000
ENDCHAR
STARTCHAR cyr-ierik
ENCODING 216
SWIDTH 500 0
DWIDTH 10 0
BBX 16 20 -1 -4
BITMAP
0000
0000
0000
0000
0000
0000
0000
0300
0600
0600
07F0
0C30
0C30
0C30
1860
1FC0
0000
0000
0000
0000
ENDCHAR
STARTCHAR cyr-e-rev
ENCODING 220
SWIDTH 500 0
DWIDTH 10 0
BBX 16 20 -1 -4
BITMAP
0000
0000
0000
0000
0000
0000
0000
01F0
0630
0018
0018
03F0
0030
0030
18C0
0F80
0000
0000
0000
0000
ENDCHAR
STARTCHAR cyr-yu
ENCODING 192
SWIDTH 600 0
DWIDTH 12 0
BBX 18 20 -1 -4
BITMAP
000000
000000
000000
000000
000000
000000
000000
033C00
06CC00
078600
078600
0F0C00
0F0C00
0F0C00
1B3000
19E000
000000
000000
000000
000000
ENDCHAR
STARTCHAR cyr-ya
ENCODING 209
SWIDTH 500 0
DWIDTH 10 0
BBX 16 20 -1 -4
BITMAP
0000
0000
0000
0000
0000
0000
0000
01FC
0618
0618
0618
07F0
01B0
0330
0C60
1860
0000
0000
0000
0000
ENDCHAR
ENDFONT
